<svg width="500" height="140" viewBox="0 0 500 140" fill="none" xmlns="http://www.w3.org/2000/svg">
<g clip-path="url(#clip0_12_19)">
<path d="M46.332 57.58L23.74 71.468L46.332 85.484L43.452 89.388L19.132 74.22V68.652L43.708 53.484L46.332 57.58Z" fill="white"/>
<path d="M98.276 47.832C98.276 49.752 97.796 51.448 96.836 52.92C95.876 54.36 94.484 55.496 92.66 56.328C90.836 57.128 88.676 57.528 86.18 57.528C83.78 57.528 81.588 57.176 79.604 56.472C77.652 55.736 75.972 54.696 74.564 53.352L77.06 50.52C78.276 51.672 79.62 52.552 81.092 53.16C82.596 53.768 84.308 54.072 86.228 54.072C88.404 54.072 90.228 53.544 91.7 52.488C93.172 51.432 93.908 49.912 93.908 47.928C93.908 46.808 93.7 45.88 93.284 45.144C92.868 44.408 92.132 43.752 91.076 43.176C90.052 42.6 88.596 42.04 86.708 41.496C83.124 40.44 80.452 39.208 78.692 37.8C76.932 36.36 76.052 34.408 76.052 31.944C76.052 30.312 76.5 28.84 77.396 27.528C78.292 26.216 79.556 25.208 81.188 24.504C82.82 23.768 84.676 23.4 86.756 23.4C88.932 23.4 90.868 23.72 92.564 24.36C94.292 25 95.876 25.944 97.316 27.192L94.82 29.88C92.548 27.896 89.908 26.904 86.9 26.904C84.98 26.904 83.396 27.32 82.148 28.152C80.9 28.984 80.276 30.2 80.276 31.8C80.276 32.76 80.532 33.576 81.044 34.248C81.556 34.92 82.404 35.544 83.588 36.12C84.772 36.696 86.436 37.288 88.58 37.896C91.684 38.792 94.068 39.96 95.732 41.4C97.428 42.84 98.276 44.984 98.276 47.832ZM128.641 57H124.609L123.601 39.72C123.409 36.68 123.313 32.696 123.313 27.768L117.745 51.048H113.569L107.617 27.768C107.681 28.92 107.713 30.456 107.713 32.376C107.713 35.32 107.649 37.768 107.521 39.72L106.657 57H102.721L104.593 23.928H110.401L115.777 46.584L120.913 23.928H126.769L128.641 57ZM137.791 48.552L135.151 57H131.023L141.823 23.928H147.103L157.855 57H153.535L150.895 48.552H137.791ZM149.791 45.096L144.367 27.48L138.895 45.096H149.791ZM184.62 47.832C184.62 49.752 184.14 51.448 183.18 52.92C182.22 54.36 180.828 55.496 179.004 56.328C177.18 57.128 175.02 57.528 172.524 57.528C170.124 57.528 167.932 57.176 165.948 56.472C163.996 55.736 162.316 54.696 160.908 53.352L163.404 50.52C164.62 51.672 165.964 52.552 167.436 53.16C168.94 53.768 170.652 54.072 172.572 54.072C174.748 54.072 176.572 53.544 178.044 52.488C179.516 51.432 180.252 49.912 180.252 47.928C180.252 46.808 180.044 45.88 179.628 45.144C179.212 44.408 178.476 43.752 177.42 43.176C176.396 42.6 174.94 42.04 173.052 41.496C169.468 40.44 166.796 39.208 165.036 37.8C163.276 36.36 162.396 34.408 162.396 31.944C162.396 30.312 162.844 28.84 163.74 27.528C164.636 26.216 165.9 25.208 167.532 24.504C169.164 23.768 171.02 23.4 173.1 23.4C175.276 23.4 177.212 23.72 178.908 24.36C180.636 25 182.22 25.944 183.66 27.192L181.164 29.88C178.892 27.896 176.252 26.904 173.244 26.904C171.324 26.904 169.74 27.32 168.492 28.152C167.244 28.984 166.62 30.2 166.62 31.8C166.62 32.76 166.876 33.576 167.388 34.248C167.9 34.92 168.748 35.544 169.932 36.12C171.116 36.696 172.78 37.288 174.924 37.896C178.028 38.792 180.412 39.96 182.076 41.4C183.772 42.84 184.62 44.984 184.62 47.832ZM194.921 27.96C194.921 28.184 195.017 29.576 195.209 32.136C195.401 34.696 195.497 37.464 195.497 40.44V57H191.609V23.928H197.273L209.129 53.112L209.033 51.384C208.713 47.448 208.553 43.816 208.553 40.488V23.928H212.441V57H206.585L194.921 27.96ZM241.75 46.296C241.75 48.504 241.286 50.472 240.358 52.2C239.462 53.896 238.182 55.208 236.518 56.136C234.886 57.064 232.966 57.528 230.758 57.528C228.518 57.528 226.582 57.064 224.95 56.136C223.318 55.176 222.054 53.848 221.158 52.152C220.294 50.456 219.862 48.504 219.862 46.296V23.928H224.038V46.44C224.038 48.936 224.614 50.808 225.766 52.056C226.918 53.304 228.582 53.928 230.758 53.928C232.934 53.928 234.598 53.304 235.75 52.056C236.934 50.808 237.526 48.936 237.526 46.44V23.928H241.75V46.296ZM260.26 57.528C256.228 57.528 253.06 56.088 250.756 53.208C248.484 50.296 247.348 46.04 247.348 40.44C247.348 36.792 247.988 33.688 249.268 31.128C250.548 28.568 252.244 26.648 254.356 25.368C256.468 24.056 258.756 23.4 261.22 23.4C263.3 23.4 265.044 23.688 266.452 24.264C267.86 24.84 269.252 25.768 270.628 27.048L268.132 29.64C267.108 28.712 266.036 28.024 264.916 27.576C263.828 27.128 262.596 26.904 261.22 26.904C258.532 26.904 256.292 27.976 254.5 30.12C252.708 32.264 251.812 35.704 251.812 40.44C251.812 45.144 252.532 48.584 253.972 50.76C255.444 52.936 257.652 54.024 260.596 54.024C262.932 54.024 265.028 53.496 266.884 52.44V42.408H260.404L259.924 38.904H271.06V54.648C269.396 55.576 267.716 56.296 266.02 56.808C264.356 57.288 262.436 57.528 260.26 57.528Z" fill="white"/>
<path d="M99.044 98.296C99.044 104.568 97.604 108.92 94.724 111.352C91.844 113.784 88.292 115 84.068 115H76.484V81.928H83.54C88.18 81.928 91.924 83.096 94.772 85.432C97.62 87.768 99.044 92.056 99.044 98.296ZM94.58 98.296C94.58 94.712 94.084 91.976 93.092 90.088C92.132 88.168 90.932 86.904 89.492 86.296C88.052 85.656 86.404 85.336 84.548 85.336H80.66V111.64H84.596C87.444 111.64 89.812 110.664 91.7 108.712C93.62 106.728 94.58 103.256 94.58 98.296ZM109.297 103.768C109.393 106.552 110.113 108.648 111.457 110.056C112.833 111.464 114.561 112.168 116.641 112.168C117.889 112.168 119.025 111.992 120.049 111.64C121.105 111.256 122.225 110.68 123.409 109.912L125.281 112.6C124.097 113.528 122.737 114.248 121.201 114.76C119.697 115.272 118.177 115.528 116.641 115.528C112.993 115.528 110.145 114.344 108.097 111.976C106.081 109.576 105.073 106.376 105.073 102.376C105.073 99.848 105.521 97.592 106.417 95.608C107.313 93.592 108.593 92.024 110.257 90.904C111.921 89.752 113.857 89.176 116.065 89.176C119.265 89.176 121.777 90.296 123.601 92.536C125.457 94.744 126.385 97.768 126.385 101.608C126.385 102.344 126.353 103.064 126.289 103.768H109.297ZM116.113 92.488C114.161 92.488 112.577 93.192 111.361 94.6C110.145 95.976 109.457 98.008 109.297 100.696H122.449C122.417 98.04 121.841 96.008 120.721 94.6C119.601 93.192 118.065 92.488 116.113 92.488ZM146.767 115H142.111L132.943 89.704H137.263L144.559 111.352L151.759 89.704H155.983L146.767 115ZM166.86 103.768C166.956 106.552 167.676 108.648 169.02 110.056C170.396 111.464 172.124 112.168 174.204 112.168C175.452 112.168 176.588 111.992 177.612 111.64C178.668 111.256 179.788 110.68 180.972 109.912L182.844 112.6C181.66 113.528 180.3 114.248 178.764 114.76C177.26 115.272 175.74 115.528 174.204 115.528C170.556 115.528 167.708 114.344 165.66 111.976C163.644 109.576 162.636 106.376 162.636 102.376C162.636 99.848 163.084 97.592 163.98 95.608C164.876 93.592 166.156 92.024 167.82 90.904C169.484 89.752 171.42 89.176 173.628 89.176C176.828 89.176 179.34 90.296 181.164 92.536C183.02 94.744 183.948 97.768 183.948 101.608C183.948 102.344 183.916 103.064 183.852 103.768H166.86ZM173.676 92.488C171.724 92.488 170.14 93.192 168.924 94.6C167.708 95.976 167.02 98.008 166.86 100.696H180.012C179.98 98.04 179.404 96.008 178.284 94.6C177.164 93.192 175.628 92.488 173.676 92.488ZM202.313 108.76C202.313 111.032 203.705 112.168 206.489 112.168C207.801 112.168 209.209 111.88 210.713 111.304L211.769 114.232C210.169 115.096 208.169 115.528 205.769 115.528C203.497 115.528 201.673 114.904 200.297 113.656C198.953 112.408 198.281 110.712 198.281 108.568V82.744H190.505V79.528H202.313V108.76ZM230.854 89.176C234.342 89.176 237.014 90.36 238.87 92.728C240.758 95.064 241.702 98.264 241.702 102.328C241.702 106.296 240.742 109.496 238.822 111.928C236.934 114.328 234.262 115.528 230.806 115.528C227.318 115.528 224.63 114.36 222.742 112.024C220.854 109.656 219.91 106.44 219.91 102.376C219.91 98.376 220.854 95.176 222.742 92.776C224.662 90.376 227.366 89.176 230.854 89.176ZM230.854 92.488C228.646 92.488 226.998 93.304 225.91 94.936C224.822 96.568 224.278 99.048 224.278 102.376C224.278 105.704 224.806 108.184 225.862 109.816C226.95 111.416 228.598 112.216 230.806 112.216C233.014 112.216 234.646 111.416 235.702 109.816C236.79 108.184 237.334 105.688 237.334 102.328C237.334 99 236.79 96.536 235.702 94.936C234.646 93.304 233.03 92.488 230.854 92.488ZM261.316 89.176C267.428 89.176 270.484 93.56 270.484 102.328C270.484 106.328 269.652 109.528 267.988 111.928C266.324 114.328 263.908 115.528 260.74 115.528C257.988 115.528 255.748 114.568 254.02 112.648V124.696L249.988 125.176V89.704H253.444L253.78 93.256C254.708 91.944 255.812 90.936 257.092 90.232C258.404 89.528 259.812 89.176 261.316 89.176ZM260.356 92.44C259.076 92.44 257.892 92.824 256.804 93.592C255.748 94.36 254.82 95.32 254.02 96.472V109C254.692 109.992 255.524 110.776 256.516 111.352C257.54 111.896 258.644 112.168 259.828 112.168C261.94 112.168 263.508 111.368 264.532 109.768C265.588 108.136 266.116 105.656 266.116 102.328C266.116 99 265.652 96.52 264.724 94.888C263.796 93.256 262.34 92.44 260.356 92.44ZM295.425 89.176C296.865 89.176 298.033 89.688 298.929 90.712C299.857 91.704 300.321 93.528 300.321 96.184V115H296.625V96.856C296.625 95.096 296.513 93.912 296.289 93.304C296.065 92.664 295.521 92.344 294.657 92.344C293.025 92.344 291.553 93.352 290.241 95.368V115H286.497V96.856C286.497 95.096 286.385 93.912 286.161 93.304C285.937 92.664 285.393 92.344 284.529 92.344C282.897 92.344 281.425 93.352 280.113 95.368V115H276.417V89.704H279.537L279.825 92.68C280.593 91.56 281.393 90.696 282.225 90.088C283.089 89.48 284.113 89.176 285.297 89.176C287.665 89.176 289.185 90.296 289.857 92.536C290.625 91.448 291.441 90.616 292.305 90.04C293.169 89.464 294.209 89.176 295.425 89.176ZM310.766 103.768C310.862 106.552 311.582 108.648 312.926 110.056C314.302 111.464 316.03 112.168 318.11 112.168C319.358 112.168 320.494 111.992 321.518 111.64C322.574 111.256 323.694 110.68 324.878 109.912L326.75 112.6C325.566 113.528 324.206 114.248 322.67 114.76C321.166 115.272 319.646 115.528 318.11 115.528C314.462 115.528 311.614 114.344 309.566 111.976C307.55 109.576 306.542 106.376 306.542 102.376C306.542 99.848 306.99 97.592 307.886 95.608C308.782 93.592 310.062 92.024 311.726 90.904C313.39 89.752 315.326 89.176 317.534 89.176C320.734 89.176 323.246 90.296 325.07 92.536C326.926 94.744 327.854 97.768 327.854 101.608C327.854 102.344 327.822 103.064 327.758 103.768H310.766ZM317.582 92.488C315.63 92.488 314.046 93.192 312.83 94.6C311.614 95.976 310.926 98.008 310.766 100.696H323.918C323.886 98.04 323.31 96.008 322.19 94.6C321.07 93.192 319.534 92.488 317.582 92.488ZM336.331 89.704H339.787L340.123 93.256C341.115 91.976 342.363 90.984 343.867 90.28C345.403 89.544 346.939 89.176 348.475 89.176C353.211 89.176 355.579 91.672 355.579 96.664V115H351.547V99.64C351.547 97.752 351.435 96.312 351.211 95.32C351.019 94.328 350.619 93.592 350.011 93.112C349.403 92.632 348.475 92.392 347.227 92.392C345.851 92.392 344.555 92.808 343.339 93.64C342.123 94.472 341.131 95.464 340.363 96.616V115H336.331V89.704ZM385.225 113.704C384.361 114.28 383.305 114.728 382.057 115.048C380.841 115.368 379.625 115.528 378.409 115.528C375.753 115.528 373.673 114.84 372.169 113.464C370.665 112.056 369.913 110.216 369.913 107.944V92.872H364.105V89.704H369.913V83.992L373.945 83.512V89.704H382.729L382.201 92.872H373.945V107.896C373.945 109.336 374.329 110.408 375.097 111.112C375.865 111.816 377.097 112.168 378.793 112.168C380.521 112.168 382.137 111.768 383.641 110.968L385.225 113.704Z" fill="white"/>
<path d="M412.892 96.172L440.22 39.724L444.508 41.772L417.244 98.092L412.892 96.172ZM480.707 68.716V74.22L456.387 89.388L453.507 85.42L476.099 71.468L453.507 57.58L456.131 53.484L480.707 68.716Z" fill="white"/>
</g>
<defs>
<clipPath id="clip0_12_19">
<rect width="473" height="136" fill="white" transform="translate(13.5 2)"/>
</clipPath>
</defs>
</svg>
